#!OML:ASF F:\VICON\USERDATA\INSTALL\rory3\rory3.ASF
:FULLY-SPECIFIED
:DEGREES
209
root 0.06147659093027791 17.809611239234087 53.41615796921088 -1.0010378495273602 -4.2230144224108 -4.163076651546024
lfemur -17.897593821163085 -2.0205147809019013 -18.141968349429543
ltibia 25.503165819128597
lfoot 5.057157632704597 -6.27342203317674
ltoes -0.5821322558153241
rfemur -10.699985220288069 6.169831737577461 25.883627451490828
rtibia 37.83208059830887
rfoot -3.84296502270203 -3.3014343629313263
rtoes 9.035326366285908
lowerback 9.270073242890998 1.1968081664297763 3.967337290355828
upperback 0.05194488051390675 2.3475941469205734 1.3279295943203577
thorax -5.448727148531649 1.0972178506378083 -1.8851206915661005
lowerneck -16.260934101919414 -2.6689192104117985 -3.048632240843621
upperneck 22.220133379750163 -3.0887266287529185 0.3696276627772411
head 9.555290246340887 -1.599178040562462 0.6312296020214818
lclavicle 1.4498201708055107e-16 2.354453405629331e-16
lhumerus -33.29020825900628 4.2508201745301974 79.60702330708703
lradius 26.652103039159257
lwrist 3.8902741273787553
lhand -29.109249980962247 20.40389167524832
lfingers 7.12502
lthumb -2.6573598832832355 49.79572104845674
rclavicle 1.4597903419545773e-16 2.362360661511424e-16
rhumerus -26.29298781757433 -18.720134841367997 -75.64782480557854
rradius 19.266845261176098
rwrist 9.661978436523219
rhand -18.403816904730345 22.85993542208846
rfingers 7.12502
rthumb 7.5766038242659866 -7.773397789211761
210
root 0.06051900140102773 17.78630709967668 53.48266272617041 -0.8749564288291238 -4.220927049736365 -4.109463620471672
lfemur -18.056081746484896 -1.930325532921537 -18.24768066091696
ltibia 25.733424912498094
lfoot 4.897879972945545 -5.979898060061574
ltoes -1.0700029438433116
rfemur -11.060182955077401 6.12577300720752 25.82487707761127
rtibia 38.56963377661514
rfoot -3.076319704324547 -4.042575597356507
rtoes 8.943689471958722
lowerback 9.30168589712314 1.1908868084322999 3.8972104979778
upperback 0.051897008841430586 2.3286094430458517 1.3070220655354514
thorax -5.499601022939579 1.0793576637702738 -1.8361633874638388
lowerneck -16.285271243695952 -2.670488335322216 -3.028040530763905
upperneck 22.191485875994715 -3.094499538130055 0.40170090978515416
head 9.546797128774083 -1.5998127214853195 0.6340644371609132
lclavicle 1.4483332723779582e-16 2.35331610571252e-16
lhumerus -32.94010645505083 3.8468379537473973 79.65608479590898
lradius 26.590758454502623
lwrist 3.7861131631190883
lhand -28.83359873236191 20.550278205606986
lfingers 7.12502
lthumb -2.4582050359413468 49.88552979103594
rclavicle 1.4585691721318702e-16 2.361421657828985e-16
rhumerus -26.15210747251259 -18.409622233965152 -75.80724770130988
rradius 19.358452197408788
rwrist 9.373717830909204
rhand -18.42834627479992 22.93009738725368
rfingers 7.12502
rthumb 7.603306151003335 -7.892630774028834
211
root 0.05506794373860757 17.76476726389966 53.47643939580768 -0.9104381761394662 -4.265265159555346 -4.398955307963979
lfemur -18.241293302448355 -1.7063811056431448 -18.07334809510589
ltibia 26.0443309297356
lfoot 4.909090476954559 -5.525466694498496
ltoes -1.3686548985396092
rfemur -11.373748677425663 6.1026674648943455 26.15586944674821
rtibia 39.13854812213786
rfoot -2.535055682632346 -5.002673201360872
rtoes 8.675123078829388
lowerback 9.450472122826989 1.1823083801774465 4.085587624313854
upperback 0.08496793658374006 2.357565559614219 1.3521941194245952
thorax -5.583633647550466 1.0898894311761502 -1.834166283839409
lowerneck -16.294768890846633 -2.6767644904694397 -3.035232908780727
upperneck 22.180802346423985 -3.1066673144279218 0.45042805434031563
head 9.549406564831678 -1.6039186212440424 0.6464312658808711
lclavicle 1.4473648001475072e-16 2.352582330979431e-16
lhumerus -32.55285409594474 3.4997672675206264 79.66860487441885
lradius 26.62849338786999
lwrist 3.7994097978210517
lhand -28.778330331656925 20.501911620848038
lfingers 7.12502
lthumb -2.409580614247207 49.887869570295045
rclavicle 1.4575002268880215e-16 2.3605996893784005e-16
rhumerus -26.028125419424157 -18.136127464750224 -75.96987952333883
rradius 19.373844590719944
rwrist 9.411877569672047
rhand -18.48720740499703 22.966037428035815
rfingers 7.12502
rthumb 7.594134202402739 -7.940674474504359
212
root 0.05450794679268983 17.73196645809286 53.516512009104964 -0.9669735471311927 -4.28019273620031 -4.44249713622269
lfemur -18.41359307050643 -1.4006408337449376 -18.147432434263767
ltibia 26.71477461560312
lfoot 4.644225003622773 -5.159742635048527
ltoes -1.247224612541946
rfemur -11.539644624203925 5.93520274024112 26.316562372412076
rtibia 39.61298349226836
rfoot -2.3796308371190644 -6.158263134322702
rtoes 8.653538591112802
lowerback 9.58665957892502 1.1645590357901106 4.121645669542763
upperback 0.12150811787122995 2.3396716206151336 1.3750971174705615
thorax -5.660412740057275 1.0658669356646397 -1.7991698992312255
lowerneck -16.28948052910211 -2.6840153468805235 -3.067317998270978
upperneck 22.126707868733746 -3.1197857711912977 0.5053391989921758
head 9.536833245170866 -1.6081836567584111 0.6614110496176803
lclavicle 1.4498429736959003e-16 2.354490042360918e-16
lhumerus -32.195641982929075 3.384255184621959 79.64852156565549
lradius 26.654108968895248
lwrist 3.541932096389437
lhand -28.6541243049295 20.611707434624094
lfingers 7.12502
lthumb -2.3387821028937843 49.90822060714512
rclavicle 1.4604096130211075e-16 2.3628365452154457e-16
rhumerus -26.027326021379174 -18.08176638939417 -76.01357360491575
rradius 19.313190976330887
rwrist 9.655529711343116
rhand -18.543191963432438 23.047106249615865
rfingers 7.12502
rthumb 7.604603584010996 -7.883655155066289
213
root 0.0552974352617297 17.722030101181268 53.57564727377672 -0.9948162516742936 -4.4379287234656095 -4.322956294410676
lfemur -18.688553547431045 -1.0967284607294019 -18.332459714416476
ltibia 26.82287089846869
lfoot 4.643129459294193 -4.3465936452298175
ltoes -1.1577502153466828
rfemur -11.744351216647763 5.834214604289258 26.314248331553696
rtibia 39.70921049818534
rfoot -2.4472726859313436 -7.338048324917593
rtoes 8.542080169769891
lowerback 9.640306618395739 1.2111705188330708 3.9674208494448227
upperback 0.1403254884129147 2.3606127188684725 1.376929950891073
thorax -5.707691353295181 1.0817600293149308 -1.728632424025152
lowerneck -16.272176156713236 -2.6890582468589805 -3.0869715514807767
upperneck 22.107169738517538 -3.127595707835587 0.5530564373766257
head 9.533492649710885 -1.6112758545394275 0.6758555092378401
lclavicle 1.4502018531467403e-16 2.354769663609897e-16
lhumerus -31.967887359305006 3.517262906607452 79.58471887873272
lradius 26.757070238153762
lwrist 3.448779626464824
lhand -28.647116158715455 20.700525507528884
lfingers 7.12502
lthumb -2.332066781642438 50.044449676074215
rclavicle 1.4620392202728814e-16 2.3640897344401724e-16
rhumerus -26.11140530569177 -18.147797397639522 -75.99806915482212
rradius 19.177109556313063
rwrist 10.053230536183179
rhand -18.58027663624797 23.134534959423586
rfingers 7.12502
rthumb 7.649055891779505 -7.779723117228429
214
root 0.054644737239817054 17.714377177868514 53.59957024153409 -1.038336824335492 -4.551279217358961 -4.134008494541453
lfemur -18.92381037416758 -0.8580654366125224 -18.616237299137044
ltibia 26.63294334205756
lfoot 4.586226828590777 -3.563952694993344
ltoes -1.3709877218664477
rfemur -12.039057615444468 5.577180608306106 26.12499992095712
rtibia 39.6610857797858
rfoot -2.5432223008677255 -8.34592997019281
rtoes 8.295779311049383
lowerback 9.716421310131564 1.2342676194623015 3.7791347288124
upperback 0.1345263189522761 2.354549004923424 1.3552841670383906
thorax -5.795812603364239 1.0724206436080137 -1.6858429528959182
lowerneck -16.25437539316415 -2.699291738880537 -3.114568717598125
upperneck 22.05623546693962 -3.1469321238096595 0.6399193826439584
head 9.513103305618516 -1.6162392789387827 0.7004840620759943
lclavicle 1.4482140275012878e-16 2.3532251402369336e-16
lhumerus -31.92597453721057 3.7788851263791146 79.51088404315585
lradius 26.895366854725424
lwrist 3.7563034651570986
lhand -28.579595419122978 20.700661196740352
lfingers 7.12502
lthumb -2.2707264928372957 50.09415902485709
rclavicle 1.457925279752781e-16 2.360926394731275e-16
rhumerus -26.239039087629966 -18.25152516434872 -76.02327242259315
rradius 19.06519843121535
rwrist 10.277098994618141
rhand -18.57395069462205 23.16619918392698
rfingers 7.12502
rthumb 7.715083958601074 -7.774415331601625
215
root 0.04963850933121716 17.679276353121587 53.762355749725266 -1.231571860101318 -4.758064772459192 -4.386424905644583
lfemur -19.12120403966225 -0.4860024107051477 -18.495447101418474
ltibia 26.62844264190213
lfoot 3.6581510209663053 -2.800597920595541
ltoes -1.9891701832574142
rfemur -12.333744395757027 5.299523920322336 26.368023861829194
rtibia 39.77115955008879
rfoot -2.855591963073465 -9.107903242086994
rtoes 7.96889185173573
lowerback 10.018923413700573 1.2395717431743574 3.925412166289645
upperback 0.18493975474440283 2.4086167821197986 1.3946426689473639
thorax -5.936110640725579 1.0688261957071414 -1.7144936106171387
lowerneck -16.23432429456884 -2.7123570572388185 -3.1242041625147916
upperneck 21.982246462085715 -3.174383752264987 0.7097573275580297
head 9.488962238779623 -1.6236445914322888 0.7179418066589819
lclavicle 1.448884765714057e-16 2.353738199569136e-16
lhumerus -31.88613600480824 3.829700191932159 79.50784798092488
lradius 27.120207865949375
lwrist 4.22315849193003
lhand -28.650415820435324 20.277141612347684
lfingers 7.12502
lthumb -2.3074745211844765 49.846495715815195
rclavicle 1.4581634546997918e-16 2.3611094949029393e-16
rhumerus -26.22475954551803 -18.2637828637608 -76.10805074072366
rradius 18.906587677915738
rwrist 10.366465297088608
rhand -18.56461468225651 23.241873152602786
rfingers 7.12502
rthumb 7.771928390059366 -7.663961335711747
